<?xml version="1.0" standalone="no"?>
<!DOCTYPE svg PUBLIC "-//W3C//DTD SVG 1.1//EN" "http://www.w3.org/Graphics/SVG/1.1/DTD/svg11.dtd">
<svg width="1107px" height="1990px" version="1.1" xmlns="http://www.w3.org/2000/svg">

<!-- This file is a systemd-analyze SVG file. It is best rendered in a   -->
<!-- browser such as Chrome, Chromium or Firefox. Other applications     -->
<!-- that render these files properly but much slower are ImageMagick,   -->
<!-- gimp, inkscape, etc. To display the files on your system, just      -->
<!-- point your browser to this file.                                    -->

<!-- This plot was generated by systemd-analyze version 239              -->

<defs>
  <style type="text/css">
    <![CDATA[
      rect       { stroke-width: 1; stroke-opacity: 0; }
      rect.background   { fill: rgb(255,255,255); }
      rect.activating   { fill: rgb(255,0,0); fill-opacity: 0.7; }
      rect.active       { fill: rgb(200,150,150); fill-opacity: 0.7; }
      rect.deactivating { fill: rgb(150,100,100); fill-opacity: 0.7; }
      rect.kernel       { fill: rgb(150,150,150); fill-opacity: 0.7; }
      rect.initrd       { fill: rgb(150,150,150); fill-opacity: 0.7; }
      rect.firmware     { fill: rgb(150,150,150); fill-opacity: 0.7; }
      rect.loader       { fill: rgb(150,150,150); fill-opacity: 0.7; }
      rect.userspace    { fill: rgb(150,150,150); fill-opacity: 0.7; }
      rect.security     { fill: rgb(144,238,144); fill-opacity: 0.7; }
      rect.generators   { fill: rgb(102,204,255); fill-opacity: 0.7; }
      rect.unitsload    { fill: rgb( 82,184,255); fill-opacity: 0.7; }
      rect.box   { fill: rgb(240,240,240); stroke: rgb(192,192,192); }
      line       { stroke: rgb(64,64,64); stroke-width: 1; }
//    line.sec1  { }
      line.sec5  { stroke-width: 2; }
      line.sec01 { stroke: rgb(224,224,224); stroke-width: 1; }
      text       { font-family: Verdana, Helvetica; font-size: 14px; }
      text.left  { font-family: Verdana, Helvetica; font-size: 14px; text-anchor: start; }
      text.right { font-family: Verdana, Helvetica; font-size: 14px; text-anchor: end; }
      text.sec   { font-size: 10px; }
    ]]>
   </style>
</defs>

<rect class="background" width="100%" height="100%" />
<text x="20" y="50">Startup finished in 816ms (kernel) + 2.546s (initrd) + 6.905s (userspace) = 10.268s
multi-user.target reached after 6.849s in userspace</text><text x="20" y="30">CentOS Linux 8 (Core) node1.tp2.b2 (Linux 4.18.0-80.el8.x86_64 #1 SMP Tue Jun 4 09:19:46 UTC 2019) x86-64 oracle</text><g transform="translate(20.000,100)">
<rect class="box" x="0" y="0" width="1026.858" height="1740.000" />
  <line class="sec5" x1="0.000" y1="0" x2="0.000" y2="1740.000" />
  <text class="sec" x="0.000" y="-5.000" >0.0s</text>
  <line class="sec01" x1="10.000" y1="0" x2="10.000" y2="1740.000" />
  <line class="sec01" x1="20.000" y1="0" x2="20.000" y2="1740.000" />
  <line class="sec01" x1="30.000" y1="0" x2="30.000" y2="1740.000" />
  <line class="sec01" x1="40.000" y1="0" x2="40.000" y2="1740.000" />
  <line class="sec01" x1="50.000" y1="0" x2="50.000" y2="1740.000" />
  <line class="sec01" x1="60.000" y1="0" x2="60.000" y2="1740.000" />
  <line class="sec01" x1="70.000" y1="0" x2="70.000" y2="1740.000" />
  <line class="sec01" x1="80.000" y1="0" x2="80.000" y2="1740.000" />
  <line class="sec01" x1="90.000" y1="0" x2="90.000" y2="1740.000" />
  <line class="sec1" x1="100.000" y1="0" x2="100.000" y2="1740.000" />
  <text class="sec" x="100.000" y="-5.000" >1.0s</text>
  <line class="sec01" x1="110.000" y1="0" x2="110.000" y2="1740.000" />
  <line class="sec01" x1="120.000" y1="0" x2="120.000" y2="1740.000" />
  <line class="sec01" x1="130.000" y1="0" x2="130.000" y2="1740.000" />
  <line class="sec01" x1="140.000" y1="0" x2="140.000" y2="1740.000" />
  <line class="sec01" x1="150.000" y1="0" x2="150.000" y2="1740.000" />
  <line class="sec01" x1="160.000" y1="0" x2="160.000" y2="1740.000" />
  <line class="sec01" x1="170.000" y1="0" x2="170.000" y2="1740.000" />
  <line class="sec01" x1="180.000" y1="0" x2="180.000" y2="1740.000" />
  <line class="sec01" x1="190.000" y1="0" x2="190.000" y2="1740.000" />
  <line class="sec1" x1="200.000" y1="0" x2="200.000" y2="1740.000" />
  <text class="sec" x="200.000" y="-5.000" >2.0s</text>
  <line class="sec01" x1="210.000" y1="0" x2="210.000" y2="1740.000" />
  <line class="sec01" x1="220.000" y1="0" x2="220.000" y2="1740.000" />
  <line class="sec01" x1="230.000" y1="0" x2="230.000" y2="1740.000" />
  <line class="sec01" x1="240.000" y1="0" x2="240.000" y2="1740.000" />
  <line class="sec01" x1="250.000" y1="0" x2="250.000" y2="1740.000" />
  <line class="sec01" x1="260.000" y1="0" x2="260.000" y2="1740.000" />
  <line class="sec01" x1="270.000" y1="0" x2="270.000" y2="1740.000" />
  <line class="sec01" x1="280.000" y1="0" x2="280.000" y2="1740.000" />
  <line class="sec01" x1="290.000" y1="0" x2="290.000" y2="1740.000" />
  <line class="sec1" x1="300.000" y1="0" x2="300.000" y2="1740.000" />
  <text class="sec" x="300.000" y="-5.000" >3.0s</text>
  <line class="sec01" x1="310.000" y1="0" x2="310.000" y2="1740.000" />
  <line class="sec01" x1="320.000" y1="0" x2="320.000" y2="1740.000" />
  <line class="sec01" x1="330.000" y1="0" x2="330.000" y2="1740.000" />
  <line class="sec01" x1="340.000" y1="0" x2="340.000" y2="1740.000" />
  <line class="sec01" x1="350.000" y1="0" x2="350.000" y2="1740.000" />
  <line class="sec01" x1="360.000" y1="0" x2="360.000" y2="1740.000" />
  <line class="sec01" x1="370.000" y1="0" x2="370.000" y2="1740.000" />
  <line class="sec01" x1="380.000" y1="0" x2="380.000" y2="1740.000" />
  <line class="sec01" x1="390.000" y1="0" x2="390.000" y2="1740.000" />
  <line class="sec1" x1="400.000" y1="0" x2="400.000" y2="1740.000" />
  <text class="sec" x="400.000" y="-5.000" >4.0s</text>
  <line class="sec01" x1="410.000" y1="0" x2="410.000" y2="1740.000" />
  <line class="sec01" x1="420.000" y1="0" x2="420.000" y2="1740.000" />
  <line class="sec01" x1="430.000" y1="0" x2="430.000" y2="1740.000" />
  <line class="sec01" x1="440.000" y1="0" x2="440.000" y2="1740.000" />
  <line class="sec01" x1="450.000" y1="0" x2="450.000" y2="1740.000" />
  <line class="sec01" x1="460.000" y1="0" x2="460.000" y2="1740.000" />
  <line class="sec01" x1="470.000" y1="0" x2="470.000" y2="1740.000" />
  <line class="sec01" x1="480.000" y1="0" x2="480.000" y2="1740.000" />
  <line class="sec01" x1="490.000" y1="0" x2="490.000" y2="1740.000" />
  <line class="sec5" x1="500.000" y1="0" x2="500.000" y2="1740.000" />
  <text class="sec" x="500.000" y="-5.000" >5.0s</text>
  <line class="sec01" x1="510.000" y1="0" x2="510.000" y2="1740.000" />
  <line class="sec01" x1="520.000" y1="0" x2="520.000" y2="1740.000" />
  <line class="sec01" x1="530.000" y1="0" x2="530.000" y2="1740.000" />
  <line class="sec01" x1="540.000" y1="0" x2="540.000" y2="1740.000" />
  <line class="sec01" x1="550.000" y1="0" x2="550.000" y2="1740.000" />
  <line class="sec01" x1="560.000" y1="0" x2="560.000" y2="1740.000" />
  <line class="sec01" x1="570.000" y1="0" x2="570.000" y2="1740.000" />
  <line class="sec01" x1="580.000" y1="0" x2="580.000" y2="1740.000" />
  <line class="sec01" x1="590.000" y1="0" x2="590.000" y2="1740.000" />
  <line class="sec1" x1="600.000" y1="0" x2="600.000" y2="1740.000" />
  <text class="sec" x="600.000" y="-5.000" >6.0s</text>
  <line class="sec01" x1="610.000" y1="0" x2="610.000" y2="1740.000" />
  <line class="sec01" x1="620.000" y1="0" x2="620.000" y2="1740.000" />
  <line class="sec01" x1="630.000" y1="0" x2="630.000" y2="1740.000" />
  <line class="sec01" x1="640.000" y1="0" x2="640.000" y2="1740.000" />
  <line class="sec01" x1="650.000" y1="0" x2="650.000" y2="1740.000" />
  <line class="sec01" x1="660.000" y1="0" x2="660.000" y2="1740.000" />
  <line class="sec01" x1="670.000" y1="0" x2="670.000" y2="1740.000" />
  <line class="sec01" x1="680.000" y1="0" x2="680.000" y2="1740.000" />
  <line class="sec01" x1="690.000" y1="0" x2="690.000" y2="1740.000" />
  <line class="sec1" x1="700.000" y1="0" x2="700.000" y2="1740.000" />
  <text class="sec" x="700.000" y="-5.000" >7.0s</text>
  <line class="sec01" x1="710.000" y1="0" x2="710.000" y2="1740.000" />
  <line class="sec01" x1="720.000" y1="0" x2="720.000" y2="1740.000" />
  <line class="sec01" x1="730.000" y1="0" x2="730.000" y2="1740.000" />
  <line class="sec01" x1="740.000" y1="0" x2="740.000" y2="1740.000" />
  <line class="sec01" x1="750.000" y1="0" x2="750.000" y2="1740.000" />
  <line class="sec01" x1="760.000" y1="0" x2="760.000" y2="1740.000" />
  <line class="sec01" x1="770.000" y1="0" x2="770.000" y2="1740.000" />
  <line class="sec01" x1="780.000" y1="0" x2="780.000" y2="1740.000" />
  <line class="sec01" x1="790.000" y1="0" x2="790.000" y2="1740.000" />
  <line class="sec1" x1="800.000" y1="0" x2="800.000" y2="1740.000" />
  <text class="sec" x="800.000" y="-5.000" >8.0s</text>
  <line class="sec01" x1="810.000" y1="0" x2="810.000" y2="1740.000" />
  <line class="sec01" x1="820.000" y1="0" x2="820.000" y2="1740.000" />
  <line class="sec01" x1="830.000" y1="0" x2="830.000" y2="1740.000" />
  <line class="sec01" x1="840.000" y1="0" x2="840.000" y2="1740.000" />
  <line class="sec01" x1="850.000" y1="0" x2="850.000" y2="1740.000" />
  <line class="sec01" x1="860.000" y1="0" x2="860.000" y2="1740.000" />
  <line class="sec01" x1="870.000" y1="0" x2="870.000" y2="1740.000" />
  <line class="sec01" x1="880.000" y1="0" x2="880.000" y2="1740.000" />
  <line class="sec01" x1="890.000" y1="0" x2="890.000" y2="1740.000" />
  <line class="sec1" x1="900.000" y1="0" x2="900.000" y2="1740.000" />
  <text class="sec" x="900.000" y="-5.000" >9.0s</text>
  <line class="sec01" x1="910.000" y1="0" x2="910.000" y2="1740.000" />
  <line class="sec01" x1="920.000" y1="0" x2="920.000" y2="1740.000" />
  <line class="sec01" x1="930.000" y1="0" x2="930.000" y2="1740.000" />
  <line class="sec01" x1="940.000" y1="0" x2="940.000" y2="1740.000" />
  <line class="sec01" x1="950.000" y1="0" x2="950.000" y2="1740.000" />
  <line class="sec01" x1="960.000" y1="0" x2="960.000" y2="1740.000" />
  <line class="sec01" x1="970.000" y1="0" x2="970.000" y2="1740.000" />
  <line class="sec01" x1="980.000" y1="0" x2="980.000" y2="1740.000" />
  <line class="sec01" x1="990.000" y1="0" x2="990.000" y2="1740.000" />
  <line class="sec5" x1="1000.000" y1="0" x2="1000.000" y2="1740.000" />
  <text class="sec" x="1000.000" y="-5.000" >10.0s</text>
  <line class="sec01" x1="1010.000" y1="0" x2="1010.000" y2="1740.000" />
  <line class="sec01" x1="1020.000" y1="0" x2="1020.000" y2="1740.000" />
  <rect class="kernel" x="0.000" y="0.000" width="81.648" height="19.000" />
  <text class="left" x="5.000" y="14.000">kernel</text>
  <rect class="initrd" x="81.648" y="20.000" width="254.699" height="19.000" />
  <text class="left" x="86.648" y="34.000">initrd</text>
  <rect class="active" x="336.347" y="40.000" width="690.511" height="19.000" />
  <rect class="security" x="81.685" y="40.000" width="0.003" height="19.000" />
  <rect class="generators" x="83.048" y="40.000" width="5.791" height="19.000" />
  <rect class="unitsload" x="88.864" y="40.000" width="0.074" height="19.000" />
  <text class="left" x="341.347" y="54.000">systemd</text>
  <rect class="activating" x="432.559" y="60.000" width="14.133" height="19.000" />
  <rect class="active" x="446.691" y="60.000" width="580.167" height="19.000" />
  <rect class="deactivating" x="1026.858" y="60.000" width="0.000" height="19.000" />
  <text class="left" x="437.559" y="74.000">systemd-journald.service (141ms)</text>
  <rect class="activating" x="432.672" y="80.000" width="11.253" height="19.000" />
  <rect class="active" x="443.925" y="80.000" width="582.933" height="19.000" />
  <rect class="deactivating" x="1026.858" y="80.000" width="0.000" height="19.000" />
  <text class="left" x="437.672" y="94.000">kmod-static-nodes.service (112ms)</text>
  <rect class="activating" x="432.822" y="100.000" width="13.390" height="19.000" />
  <rect class="active" x="446.212" y="100.000" width="580.647" height="19.000" />
  <rect class="deactivating" x="1026.858" y="100.000" width="0.000" height="19.000" />
  <text class="left" x="437.822" y="114.000">nis-domainname.service (133ms)</text>
  <rect class="activating" x="432.858" y="120.000" width="0.000" height="19.000" />
  <rect class="active" x="432.858" y="120.000" width="594.000" height="19.000" />
  <rect class="deactivating" x="1026.858" y="120.000" width="0.000" height="19.000" />
  <text class="left" x="437.858" y="134.000">systemd-ask-password-console.path</text>
  <rect class="activating" x="432.953" y="140.000" width="0.000" height="19.000" />
  <rect class="active" x="432.953" y="140.000" width="593.906" height="19.000" />
  <rect class="deactivating" x="1026.858" y="140.000" width="0.000" height="19.000" />
  <text class="left" x="437.953" y="154.000">system-getty.slice</text>
  <rect class="activating" x="434.466" y="160.000" width="0.000" height="19.000" />
  <rect class="active" x="434.466" y="160.000" width="592.393" height="19.000" />
  <rect class="deactivating" x="1026.858" y="160.000" width="0.000" height="19.000" />
  <text class="left" x="439.466" y="174.000">systemd-coredump.socket</text>
  <rect class="activating" x="435.568" y="180.000" width="0.000" height="19.000" />
  <rect class="active" x="435.568" y="180.000" width="591.291" height="19.000" />
  <rect class="deactivating" x="1026.858" y="180.000" width="0.000" height="19.000" />
  <text class="left" x="440.568" y="194.000">system-sshd\x2dkeygen.slice</text>
  <rect class="activating" x="435.787" y="200.000" width="0.000" height="19.000" />
  <rect class="active" x="435.787" y="200.000" width="591.072" height="19.000" />
  <rect class="deactivating" x="1026.858" y="200.000" width="0.000" height="19.000" />
  <text class="left" x="440.787" y="214.000">systemd-udevd-kernel.socket</text>
  <rect class="activating" x="436.034" y="220.000" width="0.000" height="19.000" />
  <rect class="active" x="436.034" y="220.000" width="590.824" height="19.000" />
  <rect class="deactivating" x="1026.858" y="220.000" width="0.000" height="19.000" />
  <text class="left" x="441.034" y="234.000">rpcbind.socket</text>
  <rect class="activating" x="436.706" y="240.000" width="9.731" height="19.000" />
  <rect class="active" x="446.437" y="240.000" width="580.422" height="19.000" />
  <rect class="deactivating" x="1026.858" y="240.000" width="0.000" height="19.000" />
  <text class="left" x="441.706" y="254.000">systemd-sysctl.service (97ms)</text>
  <rect class="activating" x="436.984" y="260.000" width="0.000" height="19.000" />
  <rect class="active" x="436.984" y="260.000" width="589.875" height="19.000" />
  <rect class="deactivating" x="1026.858" y="260.000" width="0.000" height="19.000" />
  <text class="left" x="441.984" y="274.000">systemd-ask-password-wall.path</text>
  <rect class="activating" x="437.282" y="280.000" width="9.197" height="19.000" />
  <rect class="active" x="446.479" y="280.000" width="580.379" height="19.000" />
  <rect class="deactivating" x="1026.858" y="280.000" width="0.000" height="19.000" />
  <text class="left" x="442.282" y="294.000">sys-kernel-debug.mount (91ms)</text>
  <rect class="activating" x="437.682" y="300.000" width="9.176" height="19.000" />
  <rect class="active" x="446.858" y="300.000" width="580.001" height="19.000" />
  <rect class="deactivating" x="1026.858" y="300.000" width="0.000" height="19.000" />
  <text class="left" x="442.682" y="314.000">dev-hugepages.mount (91ms)</text>
  <rect class="activating" x="439.571" y="320.000" width="0.000" height="19.000" />
  <rect class="active" x="439.571" y="320.000" width="587.287" height="19.000" />
  <rect class="deactivating" x="1026.858" y="320.000" width="0.000" height="19.000" />
  <text class="left" x="444.571" y="334.000">cryptsetup.target</text>
  <rect class="activating" x="439.770" y="340.000" width="0.000" height="19.000" />
  <rect class="active" x="439.770" y="340.000" width="587.088" height="19.000" />
  <rect class="deactivating" x="1026.858" y="340.000" width="0.000" height="19.000" />
  <text class="left" x="444.770" y="354.000">systemd-udevd-control.socket</text>
  <rect class="activating" x="440.412" y="360.000" width="36.813" height="19.000" />
  <rect class="active" x="477.225" y="360.000" width="549.633" height="19.000" />
  <rect class="deactivating" x="1026.858" y="360.000" width="0.000" height="19.000" />
  <text class="left" x="445.412" y="374.000">systemd-udev-trigger.service (368ms)</text>
  <rect class="activating" x="440.614" y="380.000" width="0.000" height="19.000" />
  <rect class="active" x="440.614" y="380.000" width="586.244" height="19.000" />
  <rect class="deactivating" x="1026.858" y="380.000" width="0.000" height="19.000" />
  <text class="left" x="445.614" y="394.000">proc-sys-fs-binfmt_misc.automount</text>
  <rect class="activating" x="440.736" y="400.000" width="0.000" height="19.000" />
  <rect class="active" x="440.736" y="400.000" width="586.122" height="19.000" />
  <rect class="deactivating" x="1026.858" y="400.000" width="0.000" height="19.000" />
  <text class="left" x="445.736" y="414.000">user.slice</text>
  <rect class="activating" x="441.382" y="420.000" width="5.493" height="19.000" />
  <rect class="active" x="446.875" y="420.000" width="579.983" height="19.000" />
  <rect class="deactivating" x="1026.858" y="420.000" width="0.000" height="19.000" />
  <text class="left" x="446.382" y="434.000">dev-mqueue.mount (54ms)</text>
  <rect class="activating" x="442.203" y="440.000" width="0.000" height="19.000" />
  <rect class="active" x="442.203" y="440.000" width="584.656" height="19.000" />
  <rect class="deactivating" x="1026.858" y="440.000" width="0.000" height="19.000" />
  <text class="left" x="447.203" y="454.000">systemd-initctl.socket</text>
  <rect class="activating" x="442.258" y="460.000" width="0.000" height="19.000" />
  <rect class="active" x="442.258" y="460.000" width="584.600" height="19.000" />
  <rect class="deactivating" x="1026.858" y="460.000" width="0.000" height="19.000" />
  <text class="left" x="447.258" y="474.000">slices.target</text>
  <rect class="activating" x="442.454" y="480.000" width="0.000" height="19.000" />
  <rect class="active" x="442.454" y="480.000" width="584.404" height="19.000" />
  <rect class="deactivating" x="1026.858" y="480.000" width="0.000" height="19.000" />
  <text class="left" x="447.454" y="494.000">rpcbind.target</text>
  <rect class="activating" x="443.686" y="500.000" width="5.304" height="19.000" />
  <rect class="active" x="448.990" y="500.000" width="577.868" height="19.000" />
  <rect class="deactivating" x="1026.858" y="500.000" width="0.000" height="19.000" />
  <text class="left" x="448.686" y="514.000">systemd-remount-fs.service (53ms)</text>
  <rect class="activating" x="443.695" y="520.000" width="0.000" height="19.000" />
  <rect class="active" x="443.695" y="520.000" width="583.164" height="19.000" />
  <rect class="deactivating" x="1026.858" y="520.000" width="0.000" height="19.000" />
  <text class="left" x="448.695" y="534.000">paths.target</text>
  <rect class="activating" x="449.115" y="540.000" width="6.199" height="19.000" />
  <rect class="active" x="455.314" y="540.000" width="571.545" height="19.000" />
  <rect class="deactivating" x="1026.858" y="540.000" width="0.000" height="19.000" />
  <text class="left" x="454.115" y="554.000">swapfile.swap (61ms)</text>
  <rect class="activating" x="449.229" y="560.000" width="6.337" height="19.000" />
  <rect class="active" x="455.566" y="560.000" width="571.293" height="19.000" />
  <rect class="deactivating" x="1026.858" y="560.000" width="0.000" height="19.000" />
  <text class="left" x="454.229" y="574.000">systemd-random-seed.service (63ms)</text>
  <rect class="activating" x="449.544" y="580.000" width="12.191" height="19.000" />
  <rect class="active" x="461.735" y="580.000" width="565.123" height="19.000" />
  <rect class="deactivating" x="1026.858" y="580.000" width="0.000" height="19.000" />
  <text class="left" x="454.544" y="594.000">systemd-sysusers.service (121ms)</text>
  <rect class="activating" x="450.304" y="600.000" width="9.709" height="19.000" />
  <rect class="active" x="460.013" y="600.000" width="566.846" height="19.000" />
  <rect class="deactivating" x="1026.858" y="600.000" width="0.000" height="19.000" />
  <text class="left" x="455.304" y="614.000">systemd-journal-flush.service (97ms)</text>
  <rect class="activating" x="452.171" y="620.000" width="98.376" height="19.000" />
  <rect class="active" x="550.547" y="620.000" width="476.312" height="19.000" />
  <rect class="deactivating" x="1026.858" y="620.000" width="0.000" height="19.000" />
  <text class="left" x="457.171" y="634.000">systemd-hwdb-update.service (983ms)</text>
  <rect class="activating" x="455.328" y="640.000" width="0.000" height="19.000" />
  <rect class="active" x="455.328" y="640.000" width="571.530" height="19.000" />
  <rect class="deactivating" x="1026.858" y="640.000" width="0.000" height="19.000" />
  <text class="left" x="460.328" y="654.000">swap.target</text>
  <rect class="activating" x="461.855" y="660.000" width="9.455" height="19.000" />
  <rect class="active" x="471.310" y="660.000" width="555.548" height="19.000" />
  <rect class="deactivating" x="1026.858" y="660.000" width="0.000" height="19.000" />
  <text class="left" x="466.855" y="674.000">systemd-tmpfiles-setup-dev.service (94ms)</text>
  <rect class="activating" x="471.333" y="680.000" width="0.000" height="19.000" />
  <rect class="active" x="471.333" y="680.000" width="555.525" height="19.000" />
  <rect class="deactivating" x="1026.858" y="680.000" width="0.000" height="19.000" />
  <text class="left" x="476.333" y="694.000">local-fs-pre.target</text>
  <rect class="activating" x="471.339" y="700.000" width="0.000" height="19.000" />
  <rect class="active" x="471.339" y="700.000" width="555.520" height="19.000" />
  <rect class="deactivating" x="1026.858" y="700.000" width="0.000" height="19.000" />
  <text class="left" x="476.339" y="714.000">local-fs.target</text>
  <rect class="activating" x="471.442" y="720.000" width="3.818" height="19.000" />
  <rect class="active" x="475.260" y="720.000" width="551.599" height="19.000" />
  <rect class="deactivating" x="1026.858" y="720.000" width="0.000" height="19.000" />
  <text class="left" x="476.442" y="734.000">dracut-shutdown.service (38ms)</text>
  <rect class="activating" x="471.551" y="740.000" width="9.885" height="19.000" />
  <rect class="active" x="481.436" y="740.000" width="545.423" height="19.000" />
  <rect class="deactivating" x="1026.858" y="740.000" width="0.000" height="19.000" />
  <text class="left" x="476.551" y="754.000">systemd-journal-catalog-update.service (98ms)</text>
  <rect class="activating" x="471.656" y="760.000" width="18.382" height="19.000" />
  <rect class="active" x="490.038" y="760.000" width="536.821" height="19.000" />
  <rect class="deactivating" x="1026.858" y="760.000" width="0.000" height="19.000" />
  <text class="left" x="476.656" y="774.000">import-state.service (183ms)</text>
  <rect class="activating" x="471.764" y="780.000" width="40.113" height="19.000" />
  <rect class="active" x="511.877" y="780.000" width="514.981" height="19.000" />
  <rect class="deactivating" x="1026.858" y="780.000" width="0.000" height="19.000" />
  <text class="left" x="476.764" y="794.000">ldconfig.service (401ms)</text>
  <rect class="activating" x="471.880" y="800.000" width="8.361" height="19.000" />
  <rect class="active" x="480.240" y="800.000" width="546.618" height="19.000" />
  <rect class="deactivating" x="1026.858" y="800.000" width="0.000" height="19.000" />
  <text class="left" x="476.880" y="814.000">systemd-machine-id-commit.service (83ms)</text>
  <rect class="activating" x="490.155" y="820.000" width="17.486" height="19.000" />
  <rect class="active" x="507.642" y="820.000" width="519.217" height="19.000" />
  <rect class="deactivating" x="1026.858" y="820.000" width="0.000" height="19.000" />
  <text class="left" x="495.155" y="834.000">systemd-tmpfiles-setup.service (174ms)</text>
  <rect class="activating" x="507.867" y="840.000" width="14.155" height="19.000" />
  <rect class="active" x="522.022" y="840.000" width="504.836" height="19.000" />
  <rect class="deactivating" x="1026.858" y="840.000" width="0.000" height="19.000" />
  <text class="left" x="512.867" y="854.000">rpcbind.service (141ms)</text>
  <rect class="activating" x="508.051" y="860.000" width="20.084" height="19.000" />
  <rect class="active" x="528.134" y="860.000" width="498.724" height="19.000" />
  <rect class="deactivating" x="1026.858" y="860.000" width="0.000" height="19.000" />
  <text class="left" x="513.051" y="874.000">var-lib-nfs-rpc_pipefs.mount (200ms)</text>
  <rect class="activating" x="508.250" y="880.000" width="26.715" height="19.000" />
  <rect class="active" x="534.965" y="880.000" width="491.893" height="19.000" />
  <rect class="deactivating" x="1026.858" y="880.000" width="0.000" height="19.000" />
  <text class="left" x="513.250" y="894.000">auditd.service (267ms)</text>
  <rect class="activating" x="528.154" y="900.000" width="0.000" height="19.000" />
  <rect class="active" x="528.154" y="900.000" width="498.705" height="19.000" />
  <rect class="deactivating" x="1026.858" y="900.000" width="0.000" height="19.000" />
  <text class="right" x="523.154" y="914.000">rpc_pipefs.target</text>
  <rect class="activating" x="535.125" y="920.000" width="2.896" height="19.000" />
  <rect class="active" x="538.021" y="920.000" width="488.838" height="19.000" />
  <rect class="deactivating" x="1026.858" y="920.000" width="0.000" height="19.000" />
  <text class="right" x="530.125" y="934.000">systemd-update-utmp.service (28ms)</text>
  <rect class="activating" x="550.674" y="940.000" width="8.261" height="19.000" />
  <rect class="active" x="558.935" y="940.000" width="467.923" height="19.000" />
  <rect class="deactivating" x="1026.858" y="940.000" width="0.000" height="19.000" />
  <text class="right" x="545.674" y="954.000">systemd-udevd.service (82ms)</text>
  <rect class="activating" x="550.783" y="960.000" width="4.478" height="19.000" />
  <rect class="active" x="555.262" y="960.000" width="471.597" height="19.000" />
  <rect class="deactivating" x="1026.858" y="960.000" width="0.000" height="19.000" />
  <text class="right" x="545.783" y="974.000">systemd-update-done.service (44ms)</text>
  <rect class="activating" x="558.955" y="980.000" width="0.000" height="19.000" />
  <rect class="active" x="558.955" y="980.000" width="467.904" height="19.000" />
  <rect class="deactivating" x="1026.858" y="980.000" width="0.000" height="19.000" />
  <text class="right" x="553.955" y="994.000">sysinit.target</text>
  <rect class="activating" x="558.966" y="1000.000" width="0.000" height="19.000" />
  <rect class="active" x="558.966" y="1000.000" width="467.892" height="19.000" />
  <rect class="deactivating" x="1026.858" y="1000.000" width="0.000" height="19.000" />
  <text class="right" x="553.966" y="1014.000">dnf-makecache.timer</text>
  <rect class="activating" x="558.972" y="1020.000" width="0.000" height="19.000" />
  <rect class="active" x="558.972" y="1020.000" width="467.886" height="19.000" />
  <rect class="deactivating" x="1026.858" y="1020.000" width="0.000" height="19.000" />
  <text class="right" x="553.972" y="1034.000">systemd-tmpfiles-clean.timer</text>
  <rect class="activating" x="559.018" y="1040.000" width="0.000" height="19.000" />
  <rect class="active" x="559.018" y="1040.000" width="467.840" height="19.000" />
  <rect class="deactivating" x="1026.858" y="1040.000" width="0.000" height="19.000" />
  <text class="right" x="554.018" y="1054.000">unbound-anchor.timer</text>
  <rect class="activating" x="559.024" y="1060.000" width="0.000" height="19.000" />
  <rect class="active" x="559.024" y="1060.000" width="467.835" height="19.000" />
  <rect class="deactivating" x="1026.858" y="1060.000" width="0.000" height="19.000" />
  <text class="right" x="554.024" y="1074.000">timers.target</text>
  <rect class="activating" x="559.135" y="1080.000" width="0.000" height="19.000" />
  <rect class="active" x="559.135" y="1080.000" width="467.724" height="19.000" />
  <rect class="deactivating" x="1026.858" y="1080.000" width="0.000" height="19.000" />
  <text class="right" x="554.135" y="1094.000">dbus.socket</text>
  <rect class="activating" x="559.176" y="1100.000" width="0.000" height="19.000" />
  <rect class="active" x="559.176" y="1100.000" width="467.682" height="19.000" />
  <rect class="deactivating" x="1026.858" y="1100.000" width="0.000" height="19.000" />
  <text class="right" x="554.176" y="1114.000">sssd-kcm.socket</text>
  <rect class="activating" x="559.181" y="1120.000" width="0.000" height="19.000" />
  <rect class="active" x="559.181" y="1120.000" width="467.677" height="19.000" />
  <rect class="deactivating" x="1026.858" y="1120.000" width="0.000" height="19.000" />
  <text class="right" x="554.181" y="1134.000">sockets.target</text>
  <rect class="activating" x="559.186" y="1140.000" width="0.000" height="19.000" />
  <rect class="active" x="559.186" y="1140.000" width="467.673" height="19.000" />
  <rect class="deactivating" x="1026.858" y="1140.000" width="0.000" height="19.000" />
  <text class="right" x="554.186" y="1154.000">basic.target</text>
  <rect class="activating" x="559.454" y="1160.000" width="34.293" height="19.000" />
  <rect class="active" x="593.747" y="1160.000" width="0.000" height="19.000" />
  <rect class="deactivating" x="593.747" y="1160.000" width="0.000" height="19.000" />
  <text class="right" x="554.454" y="1174.000">sshd-keygen@ed25519.service (342ms)</text>
  <rect class="activating" x="559.774" y="1180.000" width="0.000" height="19.000" />
  <rect class="active" x="559.774" y="1180.000" width="467.085" height="19.000" />
  <rect class="deactivating" x="1026.858" y="1180.000" width="0.000" height="19.000" />
  <text class="right" x="554.774" y="1194.000">dbus.service</text>
  <rect class="activating" x="561.512" y="1200.000" width="202.601" height="19.000" />
  <rect class="active" x="764.113" y="1200.000" width="0.000" height="19.000" />
  <rect class="deactivating" x="764.113" y="1200.000" width="0.000" height="19.000" />
  <text class="right" x="556.512" y="1214.000">sshd-keygen@rsa.service (2.026s)</text>
  <rect class="activating" x="563.172" y="1220.000" width="20.447" height="19.000" />
  <rect class="active" x="583.620" y="1220.000" width="443.239" height="19.000" />
  <rect class="deactivating" x="1026.858" y="1220.000" width="0.000" height="19.000" />
  <text class="right" x="558.172" y="1234.000">gssproxy.service (204ms)</text>
  <rect class="activating" x="565.384" y="1240.000" width="0.000" height="19.000" />
  <rect class="active" x="565.384" y="1240.000" width="13.006" height="19.000" />
  <rect class="deactivating" x="578.390" y="1240.000" width="0.000" height="19.000" />
  <text class="right" x="560.384" y="1254.000">irqbalance.service</text>
  <rect class="activating" x="565.535" y="1260.000" width="107.286" height="19.000" />
  <rect class="active" x="672.821" y="1260.000" width="354.037" height="19.000" />
  <rect class="deactivating" x="1026.858" y="1260.000" width="0.000" height="19.000" />
  <text class="right" x="560.535" y="1274.000">polkit.service (1.072s)</text>
  <rect class="activating" x="567.641" y="1280.000" width="36.964" height="19.000" />
  <rect class="active" x="604.605" y="1280.000" width="0.000" height="19.000" />
  <rect class="deactivating" x="604.605" y="1280.000" width="0.000" height="19.000" />
  <text class="right" x="562.641" y="1294.000">sshd-keygen@ecdsa.service (369ms)</text>
  <rect class="activating" x="569.581" y="1300.000" width="179.615" height="19.000" />
  <rect class="active" x="749.196" y="1300.000" width="277.662" height="19.000" />
  <rect class="deactivating" x="1026.858" y="1300.000" width="0.000" height="19.000" />
  <text class="right" x="564.581" y="1314.000">sssd.service (1.796s)</text>
  <rect class="activating" x="571.498" y="1320.000" width="0.000" height="19.000" />
  <rect class="active" x="571.498" y="1320.000" width="455.360" height="19.000" />
  <rect class="deactivating" x="1026.858" y="1320.000" width="0.000" height="19.000" />
  <text class="right" x="566.498" y="1334.000">rngd.service</text>
  <rect class="activating" x="578.251" y="1340.000" width="51.613" height="19.000" />
  <rect class="active" x="629.863" y="1340.000" width="396.995" height="19.000" />
  <rect class="deactivating" x="1026.858" y="1340.000" width="0.000" height="19.000" />
  <text class="right" x="573.251" y="1354.000">chronyd.service (516ms)</text>
  <rect class="activating" x="583.685" y="1360.000" width="0.000" height="19.000" />
  <rect class="active" x="583.685" y="1360.000" width="443.173" height="19.000" />
  <rect class="deactivating" x="1026.858" y="1360.000" width="0.000" height="19.000" />
  <text class="right" x="578.685" y="1374.000">nfs-client.target</text>
  <rect class="activating" x="583.703" y="1380.000" width="0.000" height="19.000" />
  <rect class="active" x="583.703" y="1380.000" width="443.155" height="19.000" />
  <rect class="deactivating" x="1026.858" y="1380.000" width="0.000" height="19.000" />
  <text class="right" x="578.703" y="1394.000">remote-fs-pre.target</text>
  <rect class="activating" x="583.717" y="1400.000" width="0.000" height="19.000" />
  <rect class="active" x="583.717" y="1400.000" width="443.141" height="19.000" />
  <rect class="deactivating" x="1026.858" y="1400.000" width="0.000" height="19.000" />
  <text class="right" x="578.717" y="1414.000">remote-fs.target</text>
  <rect class="activating" x="616.138" y="1420.000" width="0.000" height="19.000" />
  <rect class="active" x="616.138" y="1420.000" width="410.720" height="19.000" />
  <rect class="deactivating" x="1026.858" y="1420.000" width="0.000" height="19.000" />
  <text class="right" x="611.138" y="1434.000">network.target</text>
  <rect class="activating" x="616.247" y="1440.000" width="404.986" height="19.000" />
  <rect class="active" x="1021.232" y="1440.000" width="5.626" height="19.000" />
  <rect class="deactivating" x="1026.858" y="1440.000" width="0.000" height="19.000" />
  <text class="right" x="611.247" y="1454.000">tuned.service (4.049s)</text>
  <rect class="activating" x="749.215" y="1460.000" width="0.000" height="19.000" />
  <rect class="active" x="749.215" y="1460.000" width="277.643" height="19.000" />
  <rect class="deactivating" x="1026.858" y="1460.000" width="0.000" height="19.000" />
  <text class="right" x="744.215" y="1474.000">nss-user-lookup.target</text>
  <rect class="activating" x="749.357" y="1480.000" width="35.141" height="19.000" />
  <rect class="active" x="784.497" y="1480.000" width="242.361" height="19.000" />
  <rect class="deactivating" x="1026.858" y="1480.000" width="0.000" height="19.000" />
  <text class="right" x="744.357" y="1494.000">systemd-logind.service (351ms)</text>
  <rect class="activating" x="749.470" y="1500.000" width="18.101" height="19.000" />
  <rect class="active" x="767.571" y="1500.000" width="259.288" height="19.000" />
  <rect class="deactivating" x="1026.858" y="1500.000" width="0.000" height="19.000" />
  <text class="right" x="744.470" y="1514.000">systemd-user-sessions.service (181ms)</text>
  <rect class="activating" x="764.249" y="1520.000" width="0.000" height="19.000" />
  <rect class="active" x="764.249" y="1520.000" width="262.610" height="19.000" />
  <rect class="deactivating" x="1026.858" y="1520.000" width="0.000" height="19.000" />
  <text class="right" x="759.249" y="1534.000">sshd-keygen.target</text>
  <rect class="activating" x="764.482" y="1540.000" width="17.533" height="19.000" />
  <rect class="active" x="782.015" y="1540.000" width="244.843" height="19.000" />
  <rect class="deactivating" x="1026.858" y="1540.000" width="0.000" height="19.000" />
  <text class="right" x="759.482" y="1554.000">sshd.service (175ms)</text>
  <rect class="activating" x="767.751" y="1560.000" width="0.000" height="19.000" />
  <rect class="active" x="767.751" y="1560.000" width="259.107" height="19.000" />
  <rect class="deactivating" x="1026.858" y="1560.000" width="0.000" height="19.000" />
  <text class="right" x="762.751" y="1574.000">getty@tty1.service</text>
  <rect class="activating" x="767.811" y="1580.000" width="0.000" height="19.000" />
  <rect class="active" x="767.811" y="1580.000" width="259.048" height="19.000" />
  <rect class="deactivating" x="1026.858" y="1580.000" width="0.000" height="19.000" />
  <text class="right" x="762.811" y="1594.000">getty.target</text>
  <rect class="activating" x="772.056" y="1600.000" width="0.000" height="19.000" />
  <rect class="active" x="772.056" y="1600.000" width="254.802" height="19.000" />
  <rect class="deactivating" x="1026.858" y="1600.000" width="0.000" height="19.000" />
  <text class="right" x="767.056" y="1614.000">crond.service</text>
  <rect class="activating" x="796.157" y="1620.000" width="0.000" height="19.000" />
  <rect class="active" x="796.157" y="1620.000" width="230.701" height="19.000" />
  <rect class="deactivating" x="1026.858" y="1620.000" width="0.000" height="19.000" />
  <text class="right" x="791.157" y="1634.000">network-online.target</text>
  <rect class="activating" x="796.685" y="1640.000" width="11.056" height="19.000" />
  <rect class="active" x="807.741" y="1640.000" width="219.117" height="19.000" />
  <rect class="deactivating" x="1026.858" y="1640.000" width="0.000" height="19.000" />
  <text class="right" x="791.685" y="1654.000">rsyslog.service (110ms)</text>
  <rect class="activating" x="796.827" y="1660.000" width="7.828" height="19.000" />
  <rect class="active" x="804.655" y="1660.000" width="222.204" height="19.000" />
  <rect class="deactivating" x="1026.858" y="1660.000" width="0.000" height="19.000" />
  <text class="right" x="791.827" y="1674.000">rpc-statd-notify.service (78ms)</text>
  <rect class="activating" x="798.319" y="1680.000" width="26.288" height="19.000" />
  <rect class="active" x="824.607" y="1680.000" width="0.000" height="19.000" />
  <rect class="deactivating" x="824.607" y="1680.000" width="0.000" height="19.000" />
  <text class="right" x="793.319" y="1694.000">kdump.service (262ms)</text>
  <rect class="activating" x="1021.321" y="1700.000" width="0.000" height="19.000" />
  <rect class="active" x="1021.321" y="1700.000" width="5.538" height="19.000" />
  <rect class="deactivating" x="1026.858" y="1700.000" width="0.000" height="19.000" />
  <text class="right" x="1016.321" y="1714.000">multi-user.target</text>
  <rect class="activating" x="1021.493" y="1720.000" width="5.313" height="19.000" />
  <rect class="active" x="1026.806" y="1720.000" width="0.000" height="19.000" />
  <rect class="deactivating" x="1026.806" y="1720.000" width="0.000" height="19.000" />
  <text class="right" x="1016.493" y="1734.000">systemd-update-utmp-runlevel.service (53ms)</text>
</g>
<g transform="translate(20,100)">
  <rect class="activating" x="0.000" y="1760.000" width="30.000" height="19.000" />
  <text class="left" x="45.000" y="1774.000">Activating</text>
  <rect class="active" x="0.000" y="1780.000" width="30.000" height="19.000" />
  <text class="left" x="45.000" y="1794.000">Active</text>
  <rect class="deactivating" x="0.000" y="1800.000" width="30.000" height="19.000" />
  <text class="left" x="45.000" y="1814.000">Deactivating</text>
  <rect class="security" x="0.000" y="1820.000" width="30.000" height="19.000" />
  <text class="left" x="45.000" y="1834.000">Setting up security module</text>
  <rect class="generators" x="0.000" y="1840.000" width="30.000" height="19.000" />
  <text class="left" x="45.000" y="1854.000">Generators</text>
  <rect class="unitsload" x="0.000" y="1860.000" width="30.000" height="19.000" />
  <text class="left" x="45.000" y="1874.000">Loading unit files</text>
</g>

</svg>
